<svg xmlns="http://www.w3.org/2000/svg" xmlns:xlink="http://www.w3.org/1999/xlink" width="300" zoomAndPan="magnify" viewBox="0 0 224.87999 149.999998" height="200" preserveAspectRatio="xMidYMid meet" version="1.0"><defs><g/><clipPath id="8fb76aa6da"><path d="M 3.425781 43.96875 L 167.566406 43.96875 L 167.566406 100.191406 L 3.425781 100.191406 Z M 3.425781 43.96875 " clip-rule="nonzero"/></clipPath><clipPath id="dc7007695c"><path d="M 5.601562 54.039062 L 81.3125 54.039062 L 81.3125 90.019531 L 5.601562 90.019531 Z M 5.601562 54.039062 " clip-rule="nonzero"/></clipPath><clipPath id="f4174b8318"><path d="M 92.5 23.550781 L 188.445312 23.550781 L 188.445312 120.996094 L 92.5 120.996094 Z M 92.5 23.550781 " clip-rule="nonzero"/></clipPath><clipPath id="5979b525a6"><path d="M 103.332031 66.824219 L 125.820312 66.824219 L 125.820312 79.566406 L 103.332031 79.566406 Z M 103.332031 66.824219 " clip-rule="nonzero"/></clipPath></defs><g clip-path="url(#8fb76aa6da)"><path stroke-linecap="butt" transform="matrix(0.748479, 0, 0, 0.74649, 3.426573, 43.96958)" fill="none" stroke-linejoin="miter" d="M -0.00105784 -0.00111226 L 219.297977 -0.00111226 L 219.297977 75.314948 L -0.00105784 75.314948 L -0.00105784 -0.00111226 " stroke="#000000" stroke-width="6" stroke-opacity="1" stroke-miterlimit="4"/></g><g clip-path="url(#dc7007695c)"><path fill="#000000" d="M 5.609375 54.039062 L 81.304688 54.039062 L 81.304688 90.019531 L 5.609375 90.019531 L 5.609375 54.039062 " fill-opacity="1" fill-rule="nonzero"/></g><g clip-path="url(#f4174b8318)"><path fill="#3aafaf" d="M 188.121094 65.929688 C 188.078125 65.722656 188.039062 65.230469 187.914062 64.492188 C 187.832031 64.121094 187.792969 63.710938 187.667969 63.21875 C 187.628906 62.972656 187.585938 62.726562 187.546875 62.4375 C 187.464844 62.152344 187.421875 61.863281 187.339844 61.578125 C 186.808594 59.15625 185.867188 55.871094 184.105469 52.011719 C 183.984375 51.761719 183.902344 51.515625 183.777344 51.269531 C 183.65625 51.023438 183.53125 50.777344 183.410156 50.53125 C 183.164062 50.039062 182.917969 49.546875 182.632812 49.011719 C 182.34375 48.519531 182.058594 47.984375 181.773438 47.492188 C 181.484375 46.960938 181.117188 46.46875 180.789062 45.933594 C 179.4375 43.839844 177.800781 41.703125 175.875 39.609375 C 172.066406 35.421875 166.949219 31.4375 160.683594 28.523438 C 157.570312 27.085938 154.171875 25.9375 150.566406 25.15625 C 146.964844 24.417969 143.15625 24.089844 139.265625 24.171875 C 131.484375 24.457031 123.335938 26.757812 116.085938 31.152344 C 108.878906 35.542969 102.652344 42.074219 98.558594 49.957031 C 96.511719 53.898438 95.039062 58.128906 94.09375 62.519531 C 93.6875 64.738281 93.359375 66.957031 93.234375 69.171875 C 93.113281 71.390625 93.113281 73.648438 93.316406 75.90625 C 93.359375 77.015625 93.5625 78.125 93.6875 79.234375 L 93.972656 80.875 L 94.136719 81.695312 L 94.339844 82.519531 C 94.792969 84.695312 95.488281 86.828125 96.265625 88.921875 C 97.042969 91.015625 97.984375 93.027344 99.050781 95 C 100.113281 96.929688 101.304688 98.820312 102.613281 100.585938 C 107.855469 107.648438 114.980469 113.066406 122.679688 116.269531 C 126.527344 117.871094 130.542969 118.9375 134.515625 119.429688 C 138.488281 119.964844 142.417969 120.003906 146.226562 119.554688 C 150.035156 119.101562 153.636719 118.238281 157.039062 117.050781 C 160.4375 115.816406 163.546875 114.257812 166.332031 112.449219 C 171.984375 108.878906 176.324219 104.445312 179.480469 100.050781 C 179.847656 99.476562 180.257812 98.984375 180.625 98.40625 C 180.992188 97.875 181.320312 97.300781 181.648438 96.765625 C 181.976562 96.230469 182.261719 95.699219 182.589844 95.164062 C 182.917969 94.628906 183.164062 94.097656 183.410156 93.5625 C 183.53125 93.316406 183.65625 93.027344 183.820312 92.78125 C 183.941406 92.535156 184.066406 92.25 184.1875 92.003906 C 184.433594 91.511719 184.636719 90.976562 184.84375 90.484375 C 185.210938 89.496094 185.621094 88.554688 185.949219 87.609375 C 187.21875 83.914062 187.75 80.917969 188.078125 78.863281 C 188.203125 77.835938 188.324219 77.058594 188.363281 76.523438 C 188.40625 75.988281 188.445312 75.703125 188.445312 75.703125 C 188.40625 77.714844 188.160156 79.726562 187.875 81.695312 C 187.503906 83.667969 187.136719 85.679688 186.523438 87.609375 C 185.417969 91.511719 183.738281 95.246094 181.648438 98.777344 C 178.496094 103.5 174.566406 107.6875 170.019531 111.054688 C 165.472656 114.421875 160.355469 117.007812 154.90625 118.609375 C 149.503906 120.253906 143.808594 120.828125 138.160156 120.539062 C 132.546875 120.210938 126.980469 118.855469 121.777344 116.640625 C 111.417969 112.164062 102.734375 103.992188 97.738281 93.890625 C 95.199219 88.921875 93.523438 83.460938 92.90625 77.878906 C 92.582031 75.085938 92.5 72.253906 92.660156 69.460938 C 92.824219 66.667969 93.234375 63.875 93.851562 61.125 C 96.347656 50.164062 102.898438 40.226562 111.828125 33.53125 C 116.332031 30.164062 121.367188 27.621094 126.691406 25.976562 C 132.058594 24.375 137.667969 23.71875 143.195312 23.964844 C 148.765625 24.292969 154.253906 25.527344 159.371094 27.742188 C 164.492188 29.960938 169.199219 33.039062 173.253906 36.816406 C 181.445312 44.414062 186.851562 54.882812 188.121094 65.929688 Z M 188.121094 65.929688 " fill-opacity="1" fill-rule="nonzero"/></g><path fill="#3aafaf" d="M 111.621094 35.914062 C 111.214844 36.285156 108.59375 38.253906 105.191406 42.277344 C 103.515625 44.289062 101.671875 46.835938 99.992188 49.957031 C 99.171875 51.515625 98.355469 53.199219 97.65625 55.046875 C 97.289062 55.953125 96.960938 56.9375 96.632812 57.882812 C 96.46875 58.375 96.347656 58.867188 96.183594 59.359375 C 96.0625 59.851562 95.898438 60.386719 95.773438 60.921875 C 95.691406 61.453125 95.570312 61.988281 95.445312 62.519531 C 95.324219 63.054688 95.242188 63.589844 95.160156 64.164062 C 95.121094 64.453125 95.078125 64.699219 94.996094 64.984375 C 94.957031 65.273438 94.914062 65.558594 94.875 65.804688 C 94.792969 66.382812 94.710938 66.914062 94.667969 67.488281 C 94.464844 69.789062 94.421875 72.171875 94.546875 74.59375 C 94.832031 79.4375 95.855469 84.53125 97.863281 89.414062 C 99.828125 94.300781 102.695312 99.023438 106.421875 103.089844 C 110.105469 107.195312 114.570312 110.683594 119.527344 113.230469 C 121.984375 114.503906 124.5625 115.570312 127.226562 116.390625 C 129.886719 117.214844 132.589844 117.789062 135.292969 118.117188 C 137.996094 118.445312 140.738281 118.527344 143.402344 118.40625 C 146.0625 118.28125 148.683594 117.871094 151.222656 117.296875 C 156.300781 116.144531 160.96875 114.132812 165.023438 111.671875 C 167.03125 110.4375 168.914062 109.042969 170.632812 107.605469 C 172.351562 106.167969 173.867188 104.648438 175.300781 103.128906 C 178.046875 100.050781 180.214844 96.890625 181.8125 93.890625 C 183.410156 90.933594 184.476562 88.183594 185.171875 85.84375 C 185.5 84.695312 185.828125 83.667969 186.03125 82.722656 C 186.152344 82.269531 186.234375 81.859375 186.316406 81.449219 C 186.398438 81.082031 186.441406 80.710938 186.523438 80.382812 C 186.644531 79.726562 186.726562 79.273438 186.769531 78.945312 C 186.808594 78.617188 186.851562 78.453125 186.851562 78.453125 C 186.605469 80.917969 186.195312 83.421875 185.539062 85.84375 C 184.882812 88.265625 184.066406 90.648438 183.042969 92.988281 C 181.445312 96.109375 179.519531 99.066406 177.308594 101.773438 C 175.097656 104.484375 172.558594 106.90625 169.773438 109.082031 C 164.285156 113.394531 157.773438 116.390625 150.9375 117.871094 C 144.097656 119.347656 136.972656 119.265625 130.214844 117.664062 C 126.816406 116.84375 123.539062 115.695312 120.425781 114.132812 C 117.316406 112.574219 114.367188 110.683594 111.664062 108.507812 C 108.960938 106.332031 106.503906 103.828125 104.375 101.117188 C 102.246094 98.367188 100.359375 95.410156 98.886719 92.289062 C 95.855469 86.050781 94.300781 79.109375 94.300781 72.171875 C 94.300781 65.230469 95.898438 58.292969 98.847656 52.050781 C 101.835938 45.808594 106.257812 40.265625 111.621094 35.914062 Z M 111.621094 35.914062 " fill-opacity="1" fill-rule="nonzero"/><path fill="#3aafaf" d="M 185.335938 72.007812 C 185.335938 71.800781 185.335938 71.347656 185.292969 70.652344 C 185.292969 70.324219 185.292969 69.914062 185.253906 69.417969 C 185.210938 68.96875 185.171875 68.433594 185.128906 67.859375 C 184.925781 65.558594 184.433594 62.398438 183.289062 58.621094 C 182.671875 56.730469 181.9375 54.71875 180.910156 52.625 C 179.886719 50.53125 178.660156 48.355469 177.105469 46.21875 C 174.03125 41.910156 169.8125 37.597656 164.367188 34.191406 C 164.039062 33.984375 163.671875 33.777344 163.34375 33.574219 C 162.976562 33.367188 162.648438 33.164062 162.277344 32.957031 C 161.582031 32.546875 160.804688 32.21875 160.066406 31.808594 C 159.289062 31.480469 158.550781 31.109375 157.773438 30.78125 C 156.996094 30.496094 156.21875 30.125 155.398438 29.878906 C 152.164062 28.769531 148.683594 27.949219 145.039062 27.621094 C 141.433594 27.292969 137.667969 27.375 133.898438 27.949219 C 132.957031 28.113281 132.015625 28.234375 131.074219 28.484375 C 130.625 28.605469 130.132812 28.6875 129.683594 28.8125 C 129.230469 28.933594 128.738281 29.058594 128.289062 29.222656 L 127.59375 29.425781 L 126.898438 29.671875 C 126.445312 29.835938 125.957031 30 125.503906 30.164062 C 124.605469 30.535156 123.664062 30.863281 122.761719 31.273438 C 120.960938 32.054688 119.199219 33.039062 117.480469 34.066406 C 115.757812 35.132812 114.160156 36.324219 112.5625 37.597656 C 111.007812 38.910156 109.535156 40.308594 108.140625 41.785156 C 107.773438 42.15625 107.445312 42.566406 107.117188 42.9375 C 106.789062 43.304688 106.421875 43.714844 106.136719 44.125 L 105.191406 45.359375 L 104.292969 46.632812 C 103.105469 48.316406 102.039062 50.082031 101.097656 51.96875 L 100.769531 52.585938 C 100.648438 52.832031 100.566406 53.078125 100.441406 53.28125 L 99.828125 54.71875 C 99.460938 55.707031 99.050781 56.648438 98.722656 57.636719 C 97.371094 61.578125 96.632812 65.722656 96.386719 69.914062 C 95.980469 78.289062 98.027344 86.707031 102.039062 93.851562 C 103.023438 95.65625 104.167969 97.339844 105.398438 98.984375 C 106.625 100.625 107.976562 102.101562 109.371094 103.539062 C 112.238281 106.375 115.390625 108.796875 118.789062 110.726562 C 122.148438 112.695312 125.75 114.09375 129.355469 115.078125 C 132.957031 116.0625 136.644531 116.515625 140.207031 116.558594 C 147.332031 116.679688 154.046875 114.996094 159.660156 112.410156 C 165.308594 109.78125 169.855469 106.167969 173.296875 102.515625 C 175.015625 100.667969 176.488281 98.820312 177.71875 97.011719 C 178.292969 96.109375 178.90625 95.246094 179.355469 94.34375 C 179.601562 93.890625 179.847656 93.480469 180.09375 93.070312 C 180.296875 92.660156 180.503906 92.25 180.75 91.839844 C 182.386719 88.59375 183.246094 85.882812 183.738281 83.996094 C 184.023438 83.050781 184.148438 82.351562 184.269531 81.859375 C 184.394531 81.367188 184.433594 81.121094 184.433594 81.121094 C 183.820312 84.816406 182.796875 88.472656 181.28125 91.921875 C 179.765625 95.371094 177.839844 98.695312 175.464844 101.691406 C 168.585938 109.78125 158.796875 115.242188 148.355469 116.925781 C 137.953125 118.652344 126.9375 116.597656 117.929688 111.179688 C 113.425781 108.46875 109.371094 104.976562 106.011719 100.914062 C 102.695312 96.847656 100.074219 92.167969 98.3125 87.238281 C 96.550781 82.269531 95.734375 77.015625 95.773438 71.761719 C 95.816406 66.503906 96.796875 61.289062 98.601562 56.363281 C 102.285156 46.550781 109.453125 38.089844 118.542969 32.957031 C 127.59375 27.742188 138.488281 25.9375 148.722656 27.824219 C 158.960938 29.632812 168.460938 35.296875 175.054688 43.265625 C 178.375 47.246094 180.953125 51.847656 182.714844 56.730469 C 184.476562 61.617188 185.335938 66.832031 185.335938 72.007812 Z M 185.335938 72.007812 " fill-opacity="1" fill-rule="nonzero"/><path fill="#3aafaf" d="M 114.40625 38.007812 C 114.203125 38.171875 113.507812 38.707031 112.441406 39.652344 C 111.910156 40.101562 111.292969 40.71875 110.597656 41.375 C 110.230469 41.703125 109.902344 42.113281 109.535156 42.484375 C 109.164062 42.894531 108.757812 43.304688 108.386719 43.757812 C 106.789062 45.605469 105.070312 47.945312 103.433594 50.777344 C 101.792969 53.613281 100.359375 57.019531 99.335938 60.878906 C 98.3125 64.738281 97.78125 69.007812 97.945312 73.527344 C 98.027344 75.785156 98.273438 78.082031 98.722656 80.421875 C 99.171875 82.722656 99.828125 85.0625 100.730469 87.363281 C 102.449219 91.960938 105.070312 96.355469 108.386719 100.214844 C 111.703125 104.074219 115.800781 107.398438 120.34375 109.863281 C 124.890625 112.328125 129.847656 113.96875 134.882812 114.667969 C 135.496094 114.75 136.152344 114.832031 136.765625 114.914062 C 137.378906 114.957031 138.035156 114.996094 138.648438 115.078125 C 139.265625 115.078125 139.917969 115.121094 140.535156 115.121094 C 141.148438 115.160156 141.761719 115.078125 142.417969 115.078125 C 144.914062 114.996094 147.332031 114.707031 149.707031 114.214844 C 152.082031 113.722656 154.335938 113.027344 156.503906 112.203125 C 157.609375 111.792969 158.632812 111.300781 159.660156 110.847656 C 160.148438 110.601562 160.683594 110.316406 161.171875 110.070312 C 161.664062 109.824219 162.15625 109.535156 162.605469 109.246094 C 166.414062 107.03125 169.652344 104.320312 172.269531 101.527344 C 172.433594 101.363281 172.597656 101.199219 172.761719 100.996094 C 172.925781 100.832031 173.089844 100.625 173.214844 100.460938 C 173.539062 100.089844 173.828125 99.761719 174.113281 99.394531 C 174.402344 99.023438 174.6875 98.65625 174.972656 98.324219 C 175.097656 98.160156 175.261719 97.957031 175.382812 97.792969 C 175.507812 97.628906 175.628906 97.421875 175.753906 97.257812 C 175.996094 96.890625 176.242188 96.558594 176.488281 96.191406 C 176.734375 95.820312 176.941406 95.492188 177.183594 95.125 C 177.636719 94.425781 178.046875 93.726562 178.414062 93.070312 C 179.929688 90.359375 180.992188 87.816406 181.691406 85.679688 C 182.058594 84.613281 182.304688 83.667969 182.550781 82.804688 C 182.753906 81.941406 182.917969 81.246094 183.042969 80.671875 C 183.246094 79.480469 183.367188 78.863281 183.367188 78.863281 C 183.125 81.164062 182.671875 83.460938 182.058594 85.679688 C 181.773438 86.789062 181.363281 87.898438 180.992188 89.003906 L 180.339844 90.648438 C 180.132812 91.179688 179.847656 91.714844 179.640625 92.25 C 179.273438 92.988281 178.824219 93.6875 178.453125 94.382812 C 178.046875 95.082031 177.59375 95.738281 177.144531 96.4375 C 176.652344 97.09375 176.203125 97.75 175.710938 98.40625 C 175.179688 99.023438 174.726562 99.679688 174.15625 100.296875 C 172.027344 102.761719 169.652344 104.976562 167.070312 106.949219 C 161.871094 110.808594 155.808594 113.519531 149.421875 114.75 C 143.074219 115.980469 136.4375 115.777344 130.171875 114.175781 C 123.90625 112.53125 118.050781 109.496094 113.136719 105.347656 C 108.222656 101.160156 104.210938 95.945312 101.589844 90.03125 C 100.277344 87.074219 99.253906 83.996094 98.601562 80.875 C 97.945312 77.714844 97.699219 74.511719 97.738281 71.265625 C 97.863281 64.820312 99.417969 58.414062 102.328125 52.707031 C 103.761719 49.832031 105.519531 47.125 107.566406 44.660156 C 109.574219 42.195312 111.867188 39.980469 114.40625 38.007812 Z M 114.40625 38.007812 " fill-opacity="1" fill-rule="nonzero"/><path fill="#3aafaf" d="M 180.910156 63.628906 C 180.832031 63.261719 180.585938 61.945312 179.96875 59.933594 C 179.804688 59.441406 179.601562 58.867188 179.4375 58.292969 C 179.234375 57.675781 178.988281 57.058594 178.699219 56.402344 C 178.453125 55.746094 178.085938 55.046875 177.757812 54.269531 C 177.554688 53.898438 177.390625 53.527344 177.183594 53.160156 C 176.980469 52.789062 176.777344 52.378906 176.570312 52.011719 C 176.367188 51.597656 176.121094 51.230469 175.875 50.820312 C 175.628906 50.410156 175.34375 49.996094 175.097656 49.585938 C 174.851562 49.175781 174.523438 48.765625 174.238281 48.355469 C 173.949219 47.945312 173.664062 47.492188 173.296875 47.082031 C 171.984375 45.359375 170.46875 43.675781 168.667969 41.992188 C 165.105469 38.664062 160.476562 35.585938 154.949219 33.53125 C 149.421875 31.519531 142.949219 30.535156 136.273438 31.273438 C 129.640625 31.972656 122.800781 34.394531 116.945312 38.707031 C 111.050781 42.9375 106.09375 48.972656 103.144531 55.953125 C 102.449219 57.71875 101.792969 59.523438 101.304688 61.371094 C 100.8125 63.21875 100.441406 65.109375 100.238281 66.996094 L 100.15625 67.695312 C 100.113281 67.941406 100.113281 68.1875 100.113281 68.433594 L 99.992188 69.871094 L 99.953125 71.308594 L 99.953125 72.785156 C 99.953125 74.714844 100.15625 76.644531 100.441406 78.535156 C 101.628906 86.132812 105.070312 93.359375 110.027344 99.023438 C 114.980469 104.730469 121.449219 108.917969 128.25 111.09375 C 131.648438 112.203125 135.167969 112.820312 138.609375 113.027344 C 142.050781 113.191406 145.449219 112.941406 148.683594 112.328125 C 155.152344 111.09375 160.847656 108.34375 165.433594 104.894531 C 170.019531 101.445312 173.457031 97.339844 175.875 93.398438 C 177.0625 91.429688 178.046875 89.457031 178.824219 87.609375 C 178.988281 87.15625 179.191406 86.664062 179.355469 86.253906 C 179.519531 85.800781 179.640625 85.351562 179.804688 84.898438 C 179.886719 84.695312 179.96875 84.449219 180.011719 84.242188 C 180.09375 84.035156 180.132812 83.832031 180.175781 83.585938 C 180.296875 83.175781 180.421875 82.765625 180.542969 82.351562 C 180.75 81.53125 180.910156 80.792969 181.074219 80.054688 C 181.199219 79.316406 181.320312 78.65625 181.445312 78 C 181.527344 77.34375 181.609375 76.769531 181.691406 76.234375 C 181.730469 75.703125 181.773438 75.210938 181.8125 74.757812 C 181.8125 74.550781 181.855469 74.304688 181.855469 74.140625 C 181.855469 73.9375 181.855469 73.773438 181.855469 73.609375 C 181.855469 73.277344 181.855469 72.992188 181.894531 72.746094 C 181.894531 72.292969 181.894531 72.046875 181.894531 72.046875 C 182.058594 75.496094 181.8125 78.988281 181.117188 82.394531 C 180.421875 85.800781 179.273438 89.167969 177.757812 92.332031 C 173.007812 100.871094 165.226562 107.730469 156.136719 111.175781 C 151.589844 112.941406 146.757812 113.886719 141.886719 113.96875 C 139.46875 114.011719 137.011719 113.847656 134.636719 113.476562 C 132.222656 113.109375 129.886719 112.492188 127.59375 111.710938 C 118.378906 108.589844 110.433594 102.101562 105.398438 93.808594 C 102.816406 89.621094 101.058594 85.023438 100.113281 80.300781 C 99.214844 75.539062 99.089844 70.652344 99.828125 65.847656 C 100.566406 61.085938 102.121094 56.445312 104.457031 52.214844 C 106.789062 47.984375 109.863281 44.167969 113.464844 41.003906 C 117.070312 37.804688 121.246094 35.296875 125.710938 33.53125 C 127.921875 32.671875 130.253906 31.972656 132.589844 31.480469 C 134.921875 31.027344 137.339844 30.78125 139.714844 30.699219 C 149.296875 30.414062 158.921875 33.65625 166.332031 39.691406 C 170.058594 42.6875 173.296875 46.300781 175.753906 50.367188 C 178.210938 54.433594 179.96875 58.949219 180.910156 63.628906 Z M 180.910156 63.628906 " fill-opacity="1" fill-rule="nonzero"/><g fill="#ffffff" fill-opacity="1"><g transform="translate(22.26292, 80.340483)"><g><path d="M 0.398438 0 L 2.601562 0 L 4.101562 -3.726562 L 12.097656 -3.726562 L 13.648438 0 L 15.828125 0 L 9.074219 -16.414062 L 7.152344 -16.414062 Z M 4.902344 -5.652344 L 8.113281 -13.53125 L 11.324219 -5.652344 Z M 4.902344 -5.652344 "/></g></g></g><g fill="#ffffff" fill-opacity="1"><g transform="translate(40.265921, 80.340483)"><g><path d="M 2.390625 0 L 4.457031 0 L 4.457031 -16.414062 L 2.390625 -16.414062 Z M 2.390625 0 "/></g></g></g><g fill="#ffffff" fill-opacity="1"><g transform="translate(48.892735, 80.340483)"><g><path d="M 2.390625 0 L 4.457031 0 L 4.457031 -7.386719 L 6.800781 -7.386719 C 7.433594 -7.386719 7.996094 -7.433594 8.511719 -7.527344 L 12.757812 0 L 15.148438 0 L 10.433594 -8.277344 C 11.371094 -8.886719 12.027344 -9.824219 12.496094 -11.066406 L 14.515625 -16.414062 L 12.332031 -16.414062 L 10.644531 -11.886719 C 9.988281 -10.105469 9.027344 -9.355469 6.800781 -9.355469 L 4.457031 -9.355469 L 4.457031 -16.414062 L 2.390625 -16.414062 Z M 2.390625 0 "/></g></g></g><g clip-path="url(#5979b525a6)"><path fill="#ffffff" d="M 103.332031 66.824219 L 125.816406 66.824219 L 125.816406 79.566406 L 103.332031 79.566406 L 103.332031 66.824219 " fill-opacity="1" fill-rule="nonzero"/></g><g fill="#000000" fill-opacity="1"><g transform="translate(101.10275, 80.141358)"><g><path d="M 6.066406 0 L 8.035156 0 L 8.035156 -13.789062 L 13.320312 -13.789062 L 13.320312 -15.667969 L 0.761719 -15.667969 L 0.761719 -13.789062 L 6.066406 -13.789062 Z M 6.066406 0 "/></g></g></g><g fill="#000000" fill-opacity="1"><g transform="translate(115.196965, 80.141358)"><g><path d="M 2.28125 0 L 12.042969 0 L 12.042969 -1.835938 L 4.253906 -1.835938 L 4.253906 -7.074219 L 11.238281 -7.074219 L 11.238281 -8.886719 L 4.253906 -8.886719 L 4.253906 -13.832031 L 11.796875 -13.832031 L 11.796875 -15.667969 L 2.28125 -15.667969 Z M 2.28125 0 "/></g></g></g><g fill="#000000" fill-opacity="1"><g transform="translate(128.687142, 80.141358)"><g><path d="M 9.222656 0.289062 C 13.027344 0.289062 16.117188 -2.015625 17.054688 -5.507812 L 14.976562 -5.507812 C 14.167969 -3.15625 11.953125 -1.679688 9.289062 -1.679688 C 5.796875 -1.679688 3.3125 -4.207031 3.3125 -7.835938 C 3.3125 -11.460938 5.796875 -13.988281 9.289062 -13.988281 C 11.886719 -13.988281 14.011719 -12.601562 14.816406 -10.339844 L 16.921875 -10.339844 C 15.890625 -13.789062 12.914062 -15.960938 9.222656 -15.960938 C 4.609375 -15.960938 1.296875 -12.558594 1.296875 -7.835938 C 1.296875 -3.113281 4.609375 0.289062 9.222656 0.289062 Z M 9.222656 0.289062 "/></g></g></g><g fill="#000000" fill-opacity="1"><g transform="translate(146.942502, 80.141358)"><g><path d="M 12.558594 0 L 14.527344 0 L 14.527344 -15.667969 L 12.558594 -15.667969 L 12.558594 -8.929688 L 4.253906 -8.929688 L 4.253906 -15.667969 L 2.28125 -15.667969 L 2.28125 0 L 4.253906 0 L 4.253906 -7.050781 L 12.558594 -7.050781 Z M 12.558594 0 "/></g></g></g></svg>